<?xml version="1.0" standalone="yes"?>
<!-- SVG graphic -->
<svg xmlns='http://www.w3.org/2000/svg' xmlns:xlink='http://www.w3.org/1999/xlink'
 version="1.1">
<rect x="0" y="0" width="6" height="200" stroke="black" stroke-width="1" fill="blue" tooltip="enable"><title>(0,3905)</title></rect><rect x="6" y="8.1434" width="6" height="191.857" stroke="black" stroke-width="1" fill="blue" tooltip="enable"><title>(0.045359,3746)</title></rect><rect x="12" y="30.3713" width="6" height="169.629" stroke="black" stroke-width="1" fill="blue" tooltip="enable"><title>(0.0907181,3312)</title></rect><rect x="18" y="57.4136" width="6" height="142.586" stroke="black" stroke-width="1" fill="blue" tooltip="enable"><title>(0.136077,2784)</title></rect><rect x="24" y="83.3803" width="6" height="116.62" stroke="black" stroke-width="1" fill="blue" tooltip="enable"><title>(0.181436,2277)</title></rect><rect x="30" y="100.435" width="6" height="99.5647" stroke="black" stroke-width="1" fill="blue" tooltip="enable"><title>(0.226795,1944)</title></rect><rect x="36" y="120.615" width="6" height="79.3854" stroke="black" stroke-width="1" fill="blue" tooltip="enable"><title>(0.272154,1550)</title></rect><rect x="42" y="132.394" width="6" height="67.6056" stroke="black" stroke-width="1" fill="blue" tooltip="enable"><title>(0.317513,1320)</title></rect><rect x="48" y="140.691" width="6" height="59.3086" stroke="black" stroke-width="1" fill="blue" tooltip="enable"><title>(0.362872,1158)</title></rect><rect x="54" y="152.164" width="6" height="47.8361" stroke="black" stroke-width="1" fill="blue" tooltip="enable"><title>(0.408231,934)</title></rect><rect x="60" y="159.744" width="6" height="40.2561" stroke="black" stroke-width="1" fill="blue" tooltip="enable"><title>(0.45359,786)</title></rect><rect x="66" y="168.758" width="6" height="31.242" stroke="black" stroke-width="1" fill="blue" tooltip="enable"><title>(0.498949,610)</title></rect><rect x="72" y="174.494" width="6" height="25.5058" stroke="black" stroke-width="1" fill="blue" tooltip="enable"><title>(0.544308,498)</title></rect><rect x="78" y="177.772" width="6" height="22.2279" stroke="black" stroke-width="1" fill="blue" tooltip="enable"><title>(0.589667,434)</title></rect><rect x="84" y="180.794" width="6" height="19.2061" stroke="black" stroke-width="1" fill="blue" tooltip="enable"><title>(0.635027,375)</title></rect><rect x="90" y="183.201" width="6" height="16.799" stroke="black" stroke-width="1" fill="blue" tooltip="enable"><title>(0.680386,328)</title></rect><rect x="96" y="184.635" width="6" height="15.3649" stroke="black" stroke-width="1" fill="blue" tooltip="enable"><title>(0.725745,300)</title></rect><rect x="102" y="187.913" width="6" height="12.0871" stroke="black" stroke-width="1" fill="blue" tooltip="enable"><title>(0.771104,236)</title></rect><rect x="108" y="188.579" width="6" height="11.4213" stroke="black" stroke-width="1" fill="blue" tooltip="enable"><title>(0.816463,223)</title></rect><rect x="114" y="189.91" width="6" height="10.0896" stroke="black" stroke-width="1" fill="blue" tooltip="enable"><title>(0.861822,197)</title></rect><rect x="120" y="191.396" width="6" height="8.60435" stroke="black" stroke-width="1" fill="blue" tooltip="enable"><title>(0.907181,168)</title></rect><rect x="126" y="192.42" width="6" height="7.58003" stroke="black" stroke-width="1" fill="blue" tooltip="enable"><title>(0.95254,148)</title></rect><rect x="132" y="192.983" width="6" height="7.01665" stroke="black" stroke-width="1" fill="blue" tooltip="enable"><title>(0.997899,137)</title></rect><rect x="138" y="193.803" width="6" height="6.19718" stroke="black" stroke-width="1" fill="blue" tooltip="enable"><title>(1.04326,121)</title></rect><rect x="144" y="195.032" width="6" height="4.96799" stroke="black" stroke-width="1" fill="blue" tooltip="enable"><title>(1.08862,97)</title></rect><rect x="150" y="195.237" width="6" height="4.76312" stroke="black" stroke-width="1" fill="blue" tooltip="enable"><title>(1.13398,93)</title></rect><rect x="156" y="194.571" width="6" height="5.42894" stroke="black" stroke-width="1" fill="blue" tooltip="enable"><title>(1.17933,106)</title></rect><rect x="162" y="195.903" width="6" height="4.09731" stroke="black" stroke-width="1" fill="blue" tooltip="enable"><title>(1.22469,80)</title></rect><rect x="168" y="196.159" width="6" height="3.84123" stroke="black" stroke-width="1" fill="blue" tooltip="enable"><title>(1.27005,75)</title></rect><rect x="174" y="196.671" width="6" height="3.32907" stroke="black" stroke-width="1" fill="blue" tooltip="enable"><title>(1.31541,65)</title></rect><rect x="180" y="197.234" width="6" height="2.76569" stroke="black" stroke-width="1" fill="blue" tooltip="enable"><title>(1.36077,54)</title></rect><rect x="186" y="197.49" width="6" height="2.5096" stroke="black" stroke-width="1" fill="blue" tooltip="enable"><title>(1.40613,49)</title></rect><rect x="192" y="198.156" width="6" height="1.84379" stroke="black" stroke-width="1" fill="blue" tooltip="enable"><title>(1.45149,36)</title></rect><rect x="198" y="197.849" width="6" height="2.15109" stroke="black" stroke-width="1" fill="blue" tooltip="enable"><title>(1.49685,42)</title></rect><rect x="204" y="197.593" width="6" height="2.40717" stroke="black" stroke-width="1" fill="blue" tooltip="enable"><title>(1.54221,47)</title></rect><rect x="210" y="198.668" width="6" height="1.33163" stroke="black" stroke-width="1" fill="blue" tooltip="enable"><title>(1.58757,26)</title></rect><rect x="216" y="198.515" width="6" height="1.48528" stroke="black" stroke-width="1" fill="blue" tooltip="enable"><title>(1.63293,29)</title></rect><rect x="222" y="197.951" width="6" height="2.04866" stroke="black" stroke-width="1" fill="blue" tooltip="enable"><title>(1.67828,40)</title></rect><rect x="228" y="198.207" width="6" height="1.79257" stroke="black" stroke-width="1" fill="blue" tooltip="enable"><title>(1.72364,35)</title></rect><rect x="234" y="198.822" width="6" height="1.17798" stroke="black" stroke-width="1" fill="blue" tooltip="enable"><title>(1.769,23)</title></rect><rect x="240" y="198.976" width="6" height="1.02433" stroke="black" stroke-width="1" fill="blue" tooltip="enable"><title>(1.81436,20)</title></rect><rect x="246" y="198.873" width="6" height="1.12676" stroke="black" stroke-width="1" fill="blue" tooltip="enable"><title>(1.85972,22)</title></rect><rect x="252" y="198.617" width="6" height="1.38284" stroke="black" stroke-width="1" fill="blue" tooltip="enable"><title>(1.90508,27)</title></rect><rect x="258" y="198.924" width="6" height="1.07554" stroke="black" stroke-width="1" fill="blue" tooltip="enable"><title>(1.95044,21)</title></rect><rect x="264" y="199.539" width="6" height="0.460948" stroke="black" stroke-width="1" fill="blue" tooltip="enable"><title>(1.9958,9)</title></rect><rect x="270" y="199.078" width="6" height="0.921895" stroke="black" stroke-width="1" fill="blue" tooltip="enable"><title>(2.04116,18)</title></rect><rect x="276" y="198.924" width="6" height="1.07554" stroke="black" stroke-width="1" fill="blue" tooltip="enable"><title>(2.08652,21)</title></rect><rect x="282" y="199.437" width="6" height="0.56338" stroke="black" stroke-width="1" fill="blue" tooltip="enable"><title>(2.13187,11)</title></rect><rect x="288" y="199.846" width="6" height="0.153649" stroke="black" stroke-width="1" fill="blue" tooltip="enable"><title>(2.17723,3)</title></rect><rect x="294" y="199.334" width="6" height="0.665813" stroke="black" stroke-width="1" fill="blue" tooltip="enable"><title>(2.22259,13)</title></rect><rect x="300" y="199.129" width="6" height="0.870679" stroke="black" stroke-width="1" fill="blue" tooltip="enable"><title>(2.26795,17)</title></rect><rect x="306" y="199.539" width="6" height="0.460948" stroke="black" stroke-width="1" fill="blue" tooltip="enable"><title>(2.31331,9)</title></rect><rect x="312" y="199.641" width="6" height="0.358515" stroke="black" stroke-width="1" fill="blue" tooltip="enable"><title>(2.35867,7)</title></rect><rect x="318" y="199.385" width="6" height="0.614597" stroke="black" stroke-width="1" fill="blue" tooltip="enable"><title>(2.40403,12)</title></rect><rect x="324" y="199.59" width="6" height="0.409731" stroke="black" stroke-width="1" fill="blue" tooltip="enable"><title>(2.44939,8)</title></rect><rect x="330" y="199.744" width="6" height="0.256082" stroke="black" stroke-width="1" fill="blue" tooltip="enable"><title>(2.49475,5)</title></rect><rect x="336" y="199.437" width="6" height="0.56338" stroke="black" stroke-width="1" fill="blue" tooltip="enable"><title>(2.54011,11)</title></rect><rect x="342" y="199.795" width="6" height="0.204866" stroke="black" stroke-width="1" fill="blue" tooltip="enable"><title>(2.58546,4)</title></rect><rect x="348" y="199.846" width="6" height="0.153649" stroke="black" stroke-width="1" fill="blue" tooltip="enable"><title>(2.63082,3)</title></rect><rect x="354" y="199.693" width="6" height="0.307298" stroke="black" stroke-width="1" fill="blue" tooltip="enable"><title>(2.67618,6)</title></rect><rect x="360" y="199.949" width="6" height="0.0512164" stroke="black" stroke-width="1" fill="blue" tooltip="enable"><title>(2.72154,1)</title></rect><rect x="366" y="199.949" width="6" height="0.0512164" stroke="black" stroke-width="1" fill="blue" tooltip="enable"><title>(2.7669,1)</title></rect><rect x="372" y="199.693" width="6" height="0.307298" stroke="black" stroke-width="1" fill="blue" tooltip="enable"><title>(2.81226,6)</title></rect><rect x="378" y="199.744" width="6" height="0.256082" stroke="black" stroke-width="1" fill="blue" tooltip="enable"><title>(2.85762,5)</title></rect><rect x="384" y="199.846" width="6" height="0.153649" stroke="black" stroke-width="1" fill="blue" tooltip="enable"><title>(2.90298,3)</title></rect><rect x="390" y="199.795" width="6" height="0.204866" stroke="black" stroke-width="1" fill="blue" tooltip="enable"><title>(2.94834,4)</title></rect><rect x="396" y="199.949" width="6" height="0.0512164" stroke="black" stroke-width="1" fill="blue" tooltip="enable"><title>(2.9937,1)</title></rect><rect x="402" y="199.949" width="6" height="0.0512164" stroke="black" stroke-width="1" fill="blue" tooltip="enable"><title>(3.03906,1)</title></rect><rect x="408" y="199.795" width="6" height="0.204866" stroke="black" stroke-width="1" fill="blue" tooltip="enable"><title>(3.08441,4)</title></rect><rect x="414" y="200" width="6" height="0" stroke="black" stroke-width="1" fill="blue" tooltip="enable"><title>(3.12977,0)</title></rect><rect x="420" y="199.898" width="6" height="0.102433" stroke="black" stroke-width="1" fill="blue" tooltip="enable"><title>(3.17513,2)</title></rect><rect x="426" y="199.898" width="6" height="0.102433" stroke="black" stroke-width="1" fill="blue" tooltip="enable"><title>(3.22049,2)</title></rect><rect x="432" y="199.846" width="6" height="0.153649" stroke="black" stroke-width="1" fill="blue" tooltip="enable"><title>(3.26585,3)</title></rect><rect x="438" y="199.898" width="6" height="0.102433" stroke="black" stroke-width="1" fill="blue" tooltip="enable"><title>(3.31121,2)</title></rect><rect x="444" y="199.846" width="6" height="0.153649" stroke="black" stroke-width="1" fill="blue" tooltip="enable"><title>(3.35657,3)</title></rect><rect x="450" y="199.795" width="6" height="0.204866" stroke="black" stroke-width="1" fill="blue" tooltip="enable"><title>(3.40193,4)</title></rect><rect x="456" y="199.949" width="6" height="0.0512164" stroke="black" stroke-width="1" fill="blue" tooltip="enable"><title>(3.44729,1)</title></rect><rect x="462" y="200" width="6" height="0" stroke="black" stroke-width="1" fill="blue" tooltip="enable"><title>(3.49265,0)</title></rect><rect x="468" y="199.949" width="6" height="0.0512164" stroke="black" stroke-width="1" fill="blue" tooltip="enable"><title>(3.538,1)</title></rect><rect x="474" y="199.795" width="6" height="0.204866" stroke="black" stroke-width="1" fill="blue" tooltip="enable"><title>(3.58336,4)</title></rect><rect x="480" y="200" width="6" height="0" stroke="black" stroke-width="1" fill="blue" tooltip="enable"><title>(3.62872,0)</title></rect><rect x="486" y="200" width="6" height="0" stroke="black" stroke-width="1" fill="blue" tooltip="enable"><title>(3.67408,0)</title></rect><rect x="492" y="199.898" width="6" height="0.102433" stroke="black" stroke-width="1" fill="blue" tooltip="enable"><title>(3.71944,2)</title></rect><rect x="498" y="200" width="6" height="0" stroke="black" stroke-width="1" fill="blue" tooltip="enable"><title>(3.7648,0)</title></rect><rect x="504" y="199.898" width="6" height="0.102433" stroke="black" stroke-width="1" fill="blue" tooltip="enable"><title>(3.81016,2)</title></rect><rect x="510" y="200" width="6" height="0" stroke="black" stroke-width="1" fill="blue" tooltip="enable"><title>(3.85552,0)</title></rect><rect x="516" y="199.949" width="6" height="0.0512164" stroke="black" stroke-width="1" fill="blue" tooltip="enable"><title>(3.90088,1)</title></rect><rect x="522" y="200" width="6" height="0" stroke="black" stroke-width="1" fill="blue" tooltip="enable"><title>(3.94624,0)</title></rect><rect x="528" y="199.949" width="6" height="0.0512164" stroke="black" stroke-width="1" fill="blue" tooltip="enable"><title>(3.9916,1)</title></rect><rect x="534" y="200" width="6" height="0" stroke="black" stroke-width="1" fill="blue" tooltip="enable"><title>(4.03695,0)</title></rect><rect x="540" y="200" width="6" height="0" stroke="black" stroke-width="1" fill="blue" tooltip="enable"><title>(4.08231,0)</title></rect><rect x="546" y="199.949" width="6" height="0.0512164" stroke="black" stroke-width="1" fill="blue" tooltip="enable"><title>(4.12767,1)</title></rect><rect x="552" y="200" width="6" height="0" stroke="black" stroke-width="1" fill="blue" tooltip="enable"><title>(4.17303,0)</title></rect><rect x="558" y="199.949" width="6" height="0.0512164" stroke="black" stroke-width="1" fill="blue" tooltip="enable"><title>(4.21839,1)</title></rect><rect x="564" y="200" width="6" height="0" stroke="black" stroke-width="1" fill="blue" tooltip="enable"><title>(4.26375,0)</title></rect><rect x="570" y="200" width="6" height="0" stroke="black" stroke-width="1" fill="blue" tooltip="enable"><title>(4.30911,0)</title></rect><rect x="576" y="200" width="6" height="0" stroke="black" stroke-width="1" fill="blue" tooltip="enable"><title>(4.35447,0)</title></rect><rect x="582" y="200" width="6" height="0" stroke="black" stroke-width="1" fill="blue" tooltip="enable"><title>(4.39983,0)</title></rect><rect x="588" y="200" width="6" height="0" stroke="black" stroke-width="1" fill="blue" tooltip="enable"><title>(4.44519,0)</title></rect><rect x="594" y="200" width="6" height="0" stroke="black" stroke-width="1" fill="blue" tooltip="enable"><title>(4.49054,0)</title></rect><text x="30" y="240" font-size="20" fill="black">0</text>
<text x="600" y="240" font-size="20" fill="black">4.5359</text>
<polyline points="0,220,600,220" stroke="black" stroke-width="1" fill="none"/>
<text x="720" y="20" font-size="20" fill="black">3905</text>
<text x="720" y="200" font-size="20" fill="black">0</text>
<polyline points="660,0,660,200" stroke="black" stroke-width="1" fill="none"/>
</svg>