<?xml version="1.0" standalone="yes"?>
<!-- SVG graphic -->
<svg xmlns='http://www.w3.org/2000/svg' xmlns:xlink='http://www.w3.org/1999/xlink'
 version="1.1">
<rect x="0" y="0" width="6" height="200" stroke="black" stroke-width="1" fill="blue" tooltip="enable"><title>(0,26300)</title></rect><rect x="6" y="29.6426" width="6" height="170.357" stroke="black" stroke-width="1" fill="blue" tooltip="enable"><title>(0.0474869,22402)</title></rect><rect x="12" y="61.8479" width="6" height="138.152" stroke="black" stroke-width="1" fill="blue" tooltip="enable"><title>(0.0949737,18167)</title></rect><rect x="18" y="89.597" width="6" height="110.403" stroke="black" stroke-width="1" fill="blue" tooltip="enable"><title>(0.142461,14518)</title></rect><rect x="24" y="112.844" width="6" height="87.1559" stroke="black" stroke-width="1" fill="blue" tooltip="enable"><title>(0.189947,11461)</title></rect><rect x="30" y="130.471" width="6" height="69.5285" stroke="black" stroke-width="1" fill="blue" tooltip="enable"><title>(0.237434,9143)</title></rect><rect x="36" y="144.616" width="6" height="55.384" stroke="black" stroke-width="1" fill="blue" tooltip="enable"><title>(0.284921,7283)</title></rect><rect x="42" y="152.966" width="6" height="47.0342" stroke="black" stroke-width="1" fill="blue" tooltip="enable"><title>(0.332408,6185)</title></rect><rect x="48" y="162.806" width="6" height="37.1939" stroke="black" stroke-width="1" fill="blue" tooltip="enable"><title>(0.379895,4891)</title></rect><rect x="54" y="170.015" width="6" height="29.9848" stroke="black" stroke-width="1" fill="blue" tooltip="enable"><title>(0.427382,3943)</title></rect><rect x="60" y="174.837" width="6" height="25.1635" stroke="black" stroke-width="1" fill="blue" tooltip="enable"><title>(0.474869,3309)</title></rect><rect x="66" y="178.578" width="6" height="21.4221" stroke="black" stroke-width="1" fill="blue" tooltip="enable"><title>(0.522355,2817)</title></rect><rect x="72" y="181.84" width="6" height="18.1597" stroke="black" stroke-width="1" fill="blue" tooltip="enable"><title>(0.569842,2388)</title></rect><rect x="78" y="185.376" width="6" height="14.6236" stroke="black" stroke-width="1" fill="blue" tooltip="enable"><title>(0.617329,1923)</title></rect><rect x="84" y="186.631" width="6" height="13.3688" stroke="black" stroke-width="1" fill="blue" tooltip="enable"><title>(0.664816,1758)</title></rect><rect x="90" y="188.806" width="6" height="11.1939" stroke="black" stroke-width="1" fill="blue" tooltip="enable"><title>(0.712303,1472)</title></rect><rect x="96" y="190.289" width="6" height="9.71103" stroke="black" stroke-width="1" fill="blue" tooltip="enable"><title>(0.75979,1277)</title></rect><rect x="102" y="191.589" width="6" height="8.41065" stroke="black" stroke-width="1" fill="blue" tooltip="enable"><title>(0.807277,1106)</title></rect><rect x="108" y="192.441" width="6" height="7.55894" stroke="black" stroke-width="1" fill="blue" tooltip="enable"><title>(0.854764,994)</title></rect><rect x="114" y="193.346" width="6" height="6.65399" stroke="black" stroke-width="1" fill="blue" tooltip="enable"><title>(0.90225,875)</title></rect><rect x="120" y="194.114" width="6" height="5.88593" stroke="black" stroke-width="1" fill="blue" tooltip="enable"><title>(0.949737,774)</title></rect><rect x="126" y="194.989" width="6" height="5.01141" stroke="black" stroke-width="1" fill="blue" tooltip="enable"><title>(0.997224,659)</title></rect><rect x="132" y="195.521" width="6" height="4.47909" stroke="black" stroke-width="1" fill="blue" tooltip="enable"><title>(1.04471,589)</title></rect><rect x="138" y="195.947" width="6" height="4.05323" stroke="black" stroke-width="1" fill="blue" tooltip="enable"><title>(1.0922,533)</title></rect><rect x="144" y="196.616" width="6" height="3.38403" stroke="black" stroke-width="1" fill="blue" tooltip="enable"><title>(1.13968,445)</title></rect><rect x="150" y="196.875" width="6" height="3.12548" stroke="black" stroke-width="1" fill="blue" tooltip="enable"><title>(1.18717,411)</title></rect><rect x="156" y="197.567" width="6" height="2.43346" stroke="black" stroke-width="1" fill="blue" tooltip="enable"><title>(1.23466,320)</title></rect><rect x="162" y="197.483" width="6" height="2.51711" stroke="black" stroke-width="1" fill="blue" tooltip="enable"><title>(1.28215,331)</title></rect><rect x="168" y="197.688" width="6" height="2.31179" stroke="black" stroke-width="1" fill="blue" tooltip="enable"><title>(1.32963,304)</title></rect><rect x="174" y="197.909" width="6" height="2.09125" stroke="black" stroke-width="1" fill="blue" tooltip="enable"><title>(1.37712,275)</title></rect><rect x="180" y="198.061" width="6" height="1.93916" stroke="black" stroke-width="1" fill="blue" tooltip="enable"><title>(1.42461,255)</title></rect><rect x="186" y="198.167" width="6" height="1.8327" stroke="black" stroke-width="1" fill="blue" tooltip="enable"><title>(1.47209,241)</title></rect><rect x="192" y="198.471" width="6" height="1.52852" stroke="black" stroke-width="1" fill="blue" tooltip="enable"><title>(1.51958,201)</title></rect><rect x="198" y="198.548" width="6" height="1.45247" stroke="black" stroke-width="1" fill="blue" tooltip="enable"><title>(1.56707,191)</title></rect><rect x="204" y="198.859" width="6" height="1.14068" stroke="black" stroke-width="1" fill="blue" tooltip="enable"><title>(1.61455,150)</title></rect><rect x="210" y="198.791" width="6" height="1.20913" stroke="black" stroke-width="1" fill="blue" tooltip="enable"><title>(1.66204,159)</title></rect><rect x="216" y="199.019" width="6" height="0.980989" stroke="black" stroke-width="1" fill="blue" tooltip="enable"><title>(1.70953,129)</title></rect><rect x="222" y="199.004" width="6" height="0.996198" stroke="black" stroke-width="1" fill="blue" tooltip="enable"><title>(1.75701,131)</title></rect><rect x="228" y="199.171" width="6" height="0.828897" stroke="black" stroke-width="1" fill="blue" tooltip="enable"><title>(1.8045,109)</title></rect><rect x="234" y="199.141" width="6" height="0.859316" stroke="black" stroke-width="1" fill="blue" tooltip="enable"><title>(1.85199,113)</title></rect><rect x="240" y="199.202" width="6" height="0.798479" stroke="black" stroke-width="1" fill="blue" tooltip="enable"><title>(1.89947,105)</title></rect><rect x="246" y="199.3" width="6" height="0.69962" stroke="black" stroke-width="1" fill="blue" tooltip="enable"><title>(1.94696,92)</title></rect><rect x="252" y="199.323" width="6" height="0.676806" stroke="black" stroke-width="1" fill="blue" tooltip="enable"><title>(1.99445,89)</title></rect><rect x="258" y="199.559" width="6" height="0.441065" stroke="black" stroke-width="1" fill="blue" tooltip="enable"><title>(2.04193,58)</title></rect><rect x="264" y="199.437" width="6" height="0.562738" stroke="black" stroke-width="1" fill="blue" tooltip="enable"><title>(2.08942,74)</title></rect><rect x="270" y="199.483" width="6" height="0.51711" stroke="black" stroke-width="1" fill="blue" tooltip="enable"><title>(2.13691,68)</title></rect><rect x="276" y="199.559" width="6" height="0.441065" stroke="black" stroke-width="1" fill="blue" tooltip="enable"><title>(2.1844,58)</title></rect><rect x="282" y="199.627" width="6" height="0.372624" stroke="black" stroke-width="1" fill="blue" tooltip="enable"><title>(2.23188,49)</title></rect><rect x="288" y="199.741" width="6" height="0.258555" stroke="black" stroke-width="1" fill="blue" tooltip="enable"><title>(2.27937,34)</title></rect><rect x="294" y="199.673" width="6" height="0.326996" stroke="black" stroke-width="1" fill="blue" tooltip="enable"><title>(2.32686,43)</title></rect><rect x="300" y="199.741" width="6" height="0.258555" stroke="black" stroke-width="1" fill="blue" tooltip="enable"><title>(2.37434,34)</title></rect><rect x="306" y="199.696" width="6" height="0.304182" stroke="black" stroke-width="1" fill="blue" tooltip="enable"><title>(2.42183,40)</title></rect><rect x="312" y="199.703" width="6" height="0.296578" stroke="black" stroke-width="1" fill="blue" tooltip="enable"><title>(2.46932,39)</title></rect><rect x="318" y="199.749" width="6" height="0.250951" stroke="black" stroke-width="1" fill="blue" tooltip="enable"><title>(2.5168,33)</title></rect><rect x="324" y="199.741" width="6" height="0.258555" stroke="black" stroke-width="1" fill="blue" tooltip="enable"><title>(2.56429,34)</title></rect><rect x="330" y="199.795" width="6" height="0.205323" stroke="black" stroke-width="1" fill="blue" tooltip="enable"><title>(2.61178,27)</title></rect><rect x="336" y="199.764" width="6" height="0.235741" stroke="black" stroke-width="1" fill="blue" tooltip="enable"><title>(2.65926,31)</title></rect><rect x="342" y="199.856" width="6" height="0.144487" stroke="black" stroke-width="1" fill="blue" tooltip="enable"><title>(2.70675,19)</title></rect><rect x="348" y="199.81" width="6" height="0.190114" stroke="black" stroke-width="1" fill="blue" tooltip="enable"><title>(2.75424,25)</title></rect><rect x="354" y="199.825" width="6" height="0.174905" stroke="black" stroke-width="1" fill="blue" tooltip="enable"><title>(2.80172,23)</title></rect><rect x="360" y="199.886" width="6" height="0.114068" stroke="black" stroke-width="1" fill="blue" tooltip="enable"><title>(2.84921,15)</title></rect><rect x="366" y="199.825" width="6" height="0.174905" stroke="black" stroke-width="1" fill="blue" tooltip="enable"><title>(2.8967,23)</title></rect><rect x="372" y="199.894" width="6" height="0.106464" stroke="black" stroke-width="1" fill="blue" tooltip="enable"><title>(2.94419,14)</title></rect><rect x="378" y="199.916" width="6" height="0.0836502" stroke="black" stroke-width="1" fill="blue" tooltip="enable"><title>(2.99167,11)</title></rect><rect x="384" y="199.848" width="6" height="0.152091" stroke="black" stroke-width="1" fill="blue" tooltip="enable"><title>(3.03916,20)</title></rect><rect x="390" y="199.871" width="6" height="0.129278" stroke="black" stroke-width="1" fill="blue" tooltip="enable"><title>(3.08665,17)</title></rect><rect x="396" y="199.886" width="6" height="0.114068" stroke="black" stroke-width="1" fill="blue" tooltip="enable"><title>(3.13413,15)</title></rect><rect x="402" y="199.894" width="6" height="0.106464" stroke="black" stroke-width="1" fill="blue" tooltip="enable"><title>(3.18162,14)</title></rect><rect x="408" y="199.894" width="6" height="0.106464" stroke="black" stroke-width="1" fill="blue" tooltip="enable"><title>(3.22911,14)</title></rect><rect x="414" y="199.962" width="6" height="0.0380228" stroke="black" stroke-width="1" fill="blue" tooltip="enable"><title>(3.27659,5)</title></rect><rect x="420" y="199.878" width="6" height="0.121673" stroke="black" stroke-width="1" fill="blue" tooltip="enable"><title>(3.32408,16)</title></rect><rect x="426" y="199.939" width="6" height="0.0608365" stroke="black" stroke-width="1" fill="blue" tooltip="enable"><title>(3.37157,8)</title></rect><rect x="432" y="199.886" width="6" height="0.114068" stroke="black" stroke-width="1" fill="blue" tooltip="enable"><title>(3.41905,15)</title></rect><rect x="438" y="199.962" width="6" height="0.0380228" stroke="black" stroke-width="1" fill="blue" tooltip="enable"><title>(3.46654,5)</title></rect><rect x="444" y="199.924" width="6" height="0.0760456" stroke="black" stroke-width="1" fill="blue" tooltip="enable"><title>(3.51403,10)</title></rect><rect x="450" y="199.932" width="6" height="0.0684411" stroke="black" stroke-width="1" fill="blue" tooltip="enable"><title>(3.56151,9)</title></rect><rect x="456" y="199.97" width="6" height="0.0304183" stroke="black" stroke-width="1" fill="blue" tooltip="enable"><title>(3.609,4)</title></rect><rect x="462" y="199.947" width="6" height="0.0532319" stroke="black" stroke-width="1" fill="blue" tooltip="enable"><title>(3.65649,7)</title></rect><rect x="468" y="199.977" width="6" height="0.0228137" stroke="black" stroke-width="1" fill="blue" tooltip="enable"><title>(3.70397,3)</title></rect><rect x="474" y="199.977" width="6" height="0.0228137" stroke="black" stroke-width="1" fill="blue" tooltip="enable"><title>(3.75146,3)</title></rect><rect x="480" y="199.992" width="6" height="0.00760456" stroke="black" stroke-width="1" fill="blue" tooltip="enable"><title>(3.79895,1)</title></rect><rect x="486" y="199.977" width="6" height="0.0228137" stroke="black" stroke-width="1" fill="blue" tooltip="enable"><title>(3.84644,3)</title></rect><rect x="492" y="200" width="6" height="0" stroke="black" stroke-width="1" fill="blue" tooltip="enable"><title>(3.89392,0)</title></rect><rect x="498" y="199.985" width="6" height="0.0152091" stroke="black" stroke-width="1" fill="blue" tooltip="enable"><title>(3.94141,2)</title></rect><rect x="504" y="199.977" width="6" height="0.0228137" stroke="black" stroke-width="1" fill="blue" tooltip="enable"><title>(3.9889,3)</title></rect><rect x="510" y="199.992" width="6" height="0.00760456" stroke="black" stroke-width="1" fill="blue" tooltip="enable"><title>(4.03638,1)</title></rect><rect x="516" y="199.992" width="6" height="0.00760456" stroke="black" stroke-width="1" fill="blue" tooltip="enable"><title>(4.08387,1)</title></rect><rect x="522" y="199.985" width="6" height="0.0152091" stroke="black" stroke-width="1" fill="blue" tooltip="enable"><title>(4.13136,2)</title></rect><rect x="528" y="199.992" width="6" height="0.00760456" stroke="black" stroke-width="1" fill="blue" tooltip="enable"><title>(4.17884,1)</title></rect><rect x="534" y="199.985" width="6" height="0.0152091" stroke="black" stroke-width="1" fill="blue" tooltip="enable"><title>(4.22633,2)</title></rect><rect x="540" y="200" width="6" height="0" stroke="black" stroke-width="1" fill="blue" tooltip="enable"><title>(4.27382,0)</title></rect><rect x="546" y="200" width="6" height="0" stroke="black" stroke-width="1" fill="blue" tooltip="enable"><title>(4.3213,0)</title></rect><rect x="552" y="199.992" width="6" height="0.00760456" stroke="black" stroke-width="1" fill="blue" tooltip="enable"><title>(4.36879,1)</title></rect><rect x="558" y="200" width="6" height="0" stroke="black" stroke-width="1" fill="blue" tooltip="enable"><title>(4.41628,0)</title></rect><rect x="564" y="200" width="6" height="0" stroke="black" stroke-width="1" fill="blue" tooltip="enable"><title>(4.46376,0)</title></rect><rect x="570" y="199.992" width="6" height="0.00760456" stroke="black" stroke-width="1" fill="blue" tooltip="enable"><title>(4.51125,1)</title></rect><rect x="576" y="199.985" width="6" height="0.0152091" stroke="black" stroke-width="1" fill="blue" tooltip="enable"><title>(4.55874,2)</title></rect><rect x="582" y="200" width="6" height="0" stroke="black" stroke-width="1" fill="blue" tooltip="enable"><title>(4.60623,0)</title></rect><rect x="588" y="200" width="6" height="0" stroke="black" stroke-width="1" fill="blue" tooltip="enable"><title>(4.65371,0)</title></rect><rect x="594" y="199.992" width="6" height="0.00760456" stroke="black" stroke-width="1" fill="blue" tooltip="enable"><title>(4.7012,1)</title></rect><text x="30" y="240" font-size="20" fill="black">0</text>
<text x="600" y="240" font-size="20" fill="black">4.74869</text>
<polyline points="0,220,600,220" stroke="black" stroke-width="1" fill="none"/>
<text x="720" y="20" font-size="20" fill="black">26300</text>
<text x="720" y="200" font-size="20" fill="black">0</text>
<polyline points="660,0,660,200" stroke="black" stroke-width="1" fill="none"/>
</svg>